<svg preserveAspectRatio="none" width="100%" height="100%" overflow="visible" style="display: block;" viewBox="0 0 18.167 18.167" fill="none" xmlns="http://www.w3.org/2000/svg">
<path id="Icon" d="M9.08301 0C14.0993 0.000175944 18.1668 4.06668 18.167 9.08301C18.1668 14.0993 14.0993 18.1668 9.08301 18.167C8.05918 18.167 7.15758 18.0197 6.31055 17.7168C5.95237 17.5887 5.68849 17.4942 5.49707 17.4277C5.40163 17.3946 5.32718 17.3704 5.27148 17.3525C5.24426 17.3438 5.22298 17.3367 5.20703 17.332C5.19935 17.3298 5.19274 17.3283 5.18848 17.3271C5.18557 17.3264 5.18336 17.3255 5.18262 17.3252C4.77707 17.2299 4.51065 17.3073 4.1709 17.4688C3.84936 17.6216 3.2802 17.9722 2.59766 18.0859C1.58046 18.2552 0.675542 17.4223 0.759766 16.3945C0.790682 16.0188 0.932497 15.6867 1.03809 15.4531C1.16184 15.1794 1.2377 15.0323 1.2832 14.874C1.46423 14.2437 1.25147 13.7914 0.836914 12.8965C0.299457 11.7363 4.77694e-05 10.4432 0 9.08301C0.000175813 4.06668 4.06668 0.000175809 9.08301 0ZM5.75 8.25C5.28976 8.25 4.91602 8.62277 4.91602 9.08301C4.91602 9.54325 5.28976 9.91602 5.75 9.91602C6.21009 9.91584 6.58301 9.54314 6.58301 9.08301C6.58301 8.62288 6.21009 8.25018 5.75 8.25ZM9.08301 8.25C8.62277 8.25 8.25 8.62277 8.25 9.08301C8.25 9.54325 8.62277 9.91602 9.08301 9.91602C9.54324 9.91602 9.91602 9.54324 9.91602 9.08301C9.91602 8.62277 9.54325 8.25 9.08301 8.25ZM12.416 8.25C11.9559 8.25018 11.583 8.62288 11.583 9.08301C11.583 9.54314 11.9559 9.91584 12.416 9.91602C12.8763 9.91602 13.25 9.54325 13.25 9.08301C13.25 8.62277 12.8763 8.25 12.416 8.25Z" fill="var(--fill-0, white)"/>
</svg>
