<svg preserveAspectRatio="none" width="100%" height="100%" overflow="visible" style="display: block;" viewBox="0 0 112.22 23.9707" fill="none" xmlns="http://www.w3.org/2000/svg">
<path id="Vector" fill-rule="evenodd" clip-rule="evenodd" d="M41.8578 9.49441H38.7893V5.19848H41.8578V0H46.948V5.19848H51.1718V9.49441H46.948V17.617C46.948 18.2668 47.0563 18.7361 47.3451 19.025C47.6339 19.3137 48.1032 19.4582 48.753 19.4582H51.3884V23.7541H47.1646C43.6268 23.7541 41.8578 21.9851 41.8578 18.4473V9.49441ZM18.9888 23.7541V19.4582H18.4112C17.978 19.4582 17.6892 19.3859 17.5087 19.2054C17.2921 19.061 17.2199 18.7361 17.2199 18.2668V11.7326C17.2199 9.56669 16.4978 7.86989 15.0539 6.71471C13.6098 5.55952 11.5882 4.98188 8.98899 4.98188C6.46192 4.98188 4.47646 5.52338 2.96024 6.57026C1.44401 7.61725 0.577613 9.09734 0.433207 10.9745H5.34288C5.45118 10.2887 5.81222 9.74715 6.42589 9.31394C7.00343 8.91687 7.79768 8.70027 8.73625 8.70027C9.78324 8.70027 10.6135 8.9529 11.2633 9.45838C11.877 9.96376 12.2019 10.6136 12.2019 11.4438V12.3464H8.51965C5.73994 12.3464 3.61005 12.8879 2.16599 13.9709C0.722008 15.0539 0 16.5702 0 18.5196C0 20.2523 0.613717 21.6242 1.87722 22.5628C3.1407 23.5014 4.80137 23.9707 6.89513 23.9707C8.26702 23.9707 9.45834 23.718 10.4691 23.1404C11.4438 22.5989 12.2742 21.8047 12.96 20.7216C12.8879 22.7432 14.043 23.7541 16.3895 23.7541H18.9888ZM8.48362 15.7398H12.2019V16.1008C12.1659 17.4004 11.7687 18.4113 11.0106 19.1693C10.2165 19.9274 9.16946 20.2884 7.86984 20.2884C7.00343 20.2884 6.35373 20.108 5.84825 19.7108C5.34287 19.3499 5.12627 18.8084 5.12627 18.1585C5.12627 17.4004 5.41504 16.8228 5.99268 16.3896C6.57022 15.9564 7.40061 15.7398 8.48362 15.7398ZM37.7085 23.7541V5.19848H32.6184V14.3318C32.6184 16.0647 32.2574 17.4004 31.5715 18.339C30.8495 19.2776 29.8748 19.7469 28.6113 19.7469C27.3838 19.7469 26.4453 19.3499 25.8676 18.4835C25.29 17.617 25.0012 16.3536 25.0012 14.6568V5.19848H19.911V15.2705C19.911 18.4113 20.597 20.6495 21.9688 21.9851C23.3406 23.3209 25.1095 23.9707 27.2755 23.9707C28.503 23.9707 29.5859 23.7541 30.4523 23.3209C31.3187 22.8877 32.0769 22.31 32.7267 21.5159L33.196 23.7541H37.7085ZM52.9996 19.4582C53.7938 20.9021 54.949 22.0213 56.4292 22.8155C57.9093 23.6097 59.6421 23.9707 61.5915 23.9707C63.541 23.9707 65.2376 23.6097 66.7177 22.8155C68.1979 22.0213 69.3531 20.9383 70.1472 19.4942C70.9415 18.0502 71.3747 16.3896 71.3747 14.4763C71.3747 12.599 70.9415 10.9385 70.1472 9.49441C69.3531 8.05046 68.1979 6.96745 66.7177 6.1732C65.2376 5.37895 63.541 4.98188 61.5915 4.98188C59.6421 4.98188 57.9093 5.37895 56.4292 6.1732C54.949 6.96745 53.7938 8.05046 52.9996 9.49441C52.2054 10.9385 51.8083 12.599 51.8083 14.4763C51.8083 16.3536 52.2054 18.0141 52.9996 19.4582ZM66.2124 14.4763C66.2124 16.0647 65.7791 17.3643 64.9489 18.339C64.1185 19.3499 62.9994 19.8191 61.5915 19.8191C60.1836 19.8191 59.0644 19.3499 58.2342 18.339C57.4039 17.3643 57.0067 16.0647 57.0067 14.4763C57.0067 12.8879 57.4039 11.6243 58.2342 10.6136C59.0644 9.63885 60.1836 9.13347 61.5915 9.13347C62.9994 9.13347 64.1185 9.63885 64.9489 10.6136C65.7791 11.6243 66.2124 12.8879 66.2124 14.4763ZM89.4468 7.00347C90.8187 8.37536 91.5407 10.5774 91.5407 13.682V23.7541H86.4505V13.9709C86.4505 10.794 85.187 9.16951 82.6961 9.16951C81.3604 9.16951 80.3496 9.63885 79.6276 10.5053C78.9056 11.4077 78.5446 12.6713 78.5446 14.2597V23.7541H73.4544V5.19848H77.8948L78.364 7.50895C79.0139 6.7147 79.772 6.10103 80.7105 5.66783C81.6131 5.23462 82.7322 4.98188 84.104 4.98188C86.2701 4.98188 88.0389 5.66782 89.4468 7.00347ZM97.7443 6.1732C96.3364 6.96745 95.2534 8.05046 94.4592 9.49441C93.665 10.9385 93.304 12.599 93.304 14.5124C93.304 16.4257 93.701 18.0864 94.4953 19.5303C95.2895 20.9744 96.4447 22.0574 97.961 22.8155C99.477 23.6097 101.247 23.9707 103.34 23.9707C104.928 23.9707 106.336 23.718 107.564 23.1404C108.792 22.5628 109.766 21.8047 110.524 20.7938C111.246 19.8191 111.715 18.7001 111.932 17.4726H106.914C106.697 18.339 106.228 19.025 105.543 19.4582C104.856 19.8914 103.99 20.108 102.979 20.108C101.679 20.108 100.632 19.7469 99.9106 18.9528C99.1523 18.1947 98.7191 17.1477 98.6108 15.7759V15.6315H112.076C112.148 15.1261 112.22 14.5484 112.22 13.8986C112.184 12.0936 111.752 10.5414 110.958 9.20565C110.163 7.86989 109.043 6.82301 107.6 6.10103C106.156 5.37895 104.531 4.98188 102.654 4.98188C100.777 4.98188 99.1523 5.37895 97.7443 6.1732ZM105.722 9.71102C106.481 10.3248 106.95 11.1911 107.13 12.3103H98.7191C98.8635 11.2272 99.2966 10.397 100.055 9.74715C100.813 9.09734 101.751 8.77243 102.871 8.77243C104.026 8.77243 104.964 9.09734 105.722 9.71102Z" fill="var(--fill-0, #00050A)"/>
</svg>
